<svg height="512" viewBox="0 0 512 512" width="512" xmlns="http://www.w3.org/2000/svg"><path d="m408 256h-40v24h-88v-128h160v72a32 32 0 0 1 -32 32z" fill="#fab991"/><path d="m304 256h64a0 0 0 0 1 0 0v24a0 0 0 0 1 0 0h-88a0 0 0 0 1 0 0 24 24 0 0 1 24-24z" fill="#f0915a"/><circle cx="392" cy="168" fill="#353744" r="8"/><circle cx="424" cy="168" fill="#353744" r="8"/><path d="m408 178.667a16 16 0 0 1 16 16v5.333a8 8 0 0 1 -8 8 8 8 0 0 1 -8-8v-21.333a0 0 0 0 1 0 0z" fill="#f0915a"/><path d="m400 224h24a0 0 0 0 1 0 0 8 8 0 0 1 -8 8h-8a8 8 0 0 1 -8-8 0 0 0 0 1 0 0z" fill="#353744"/><rect fill="#353744" height="32" rx="16" width="288" x="208" y="64"/><rect fill="#55525b" height="32" rx="16" width="144" x="208" y="64"/><path d="m264 96h176v56h-176z" fill="#353744"/><path d="m264 112h85.333v40h-85.333z" fill="#55525b"/><path d="m264 152v112a16 16 0 0 0 16 16h40a16 16 0 0 0 16-16v-88h4a12 12 0 0 0 12-12 12 12 0 0 1 12-12z" fill="#f04b37"/><path d="m336 168a24 24 0 0 0 0 48z" fill="#f0915a"/><path d="m272 280h136a32 32 0 0 1 32 32v152a0 0 0 0 1 0 0h-200a0 0 0 0 1 0 0v-152a32 32 0 0 1 32-32z" fill="#353744"/><path d="m368 280h-48a32 32 0 0 1 32 32v16a24 24 0 0 0 24 24 24 24 0 0 0 24-24v-16a32 32 0 0 0 -32-32z" fill="#d7e6f0"/><path d="m272 280a32 32 0 0 1 32 32v152a0 0 0 0 1 0 0h-64a0 0 0 0 1 0 0v-152a32 32 0 0 1 32-32z" fill="#55525b"/><path d="m264 48h80a16 16 0 0 1 16 16 0 0 0 0 1 0 0h-112a0 0 0 0 1 0 0 16 16 0 0 1 16-16z" fill="#fabe19"/><path d="m248 152h16v8h-16z" fill="#d7e6f0"/><path d="m248 160h16a8 8 0 0 1 8 8v44a4 4 0 0 1 -4 4h-24a4 4 0 0 1 -4-4v-44a8 8 0 0 1 8-8z" fill="#fabe19"/><path d="m260 168h12a0 0 0 0 1 0 0v44a4 4 0 0 1 -4 4h-12a0 0 0 0 1 0 0v-44a4 4 0 0 1 4-4z" fill="#f5871e"/><path d="m248 64h16v88h-16z" fill="#fabe19"/><path d="m216 256h-40v24h-88v-128h160v72a32 32 0 0 1 -32 32z" fill="#fab991"/><path d="m112 256h64a0 0 0 0 1 0 0v24a0 0 0 0 1 0 0h-88a0 0 0 0 1 0 0 24 24 0 0 1 24-24z" fill="#f0915a"/><circle cx="200" cy="168" fill="#353744" r="8"/><circle cx="232" cy="168" fill="#353744" r="8"/><path d="m216 178.667a16 16 0 0 1 16 16v5.333a8 8 0 0 1 -8 8 8 8 0 0 1 -8-8v-21.333a0 0 0 0 1 0 0z" fill="#f0915a"/><path d="m208 224h24a0 0 0 0 1 0 0 8 8 0 0 1 -8 8h-8a8 8 0 0 1 -8-8 0 0 0 0 1 0 0z" fill="#353744"/><rect fill="#353744" height="32" rx="16" width="288" x="16" y="64"/><rect fill="#55525b" height="32" rx="16" width="144" x="16" y="64"/><path d="m72 96h176v56h-176z" fill="#353744"/><path d="m72 112h85.333v40h-85.333z" fill="#55525b"/><path d="m72 152v72a16 16 0 0 0 16 16h40a16 16 0 0 0 16-16v-32a16 16 0 0 0 16-16v-8a16 16 0 0 1 16-16z" fill="#353744"/><path d="m144 168a24 24 0 0 0 0 48z" fill="#f0915a"/><path d="m80 280h136a32 32 0 0 1 32 32v152a0 0 0 0 1 0 0h-200a0 0 0 0 1 0 0v-152a32 32 0 0 1 32-32z" fill="#353744"/><path d="m176 280h-48a32 32 0 0 1 32 32v64a24 24 0 0 0 24 24 24 24 0 0 0 24-24v-64a32 32 0 0 0 -32-32z" fill="#d7e6f0"/><path d="m192 312a32 32 0 0 0 -32-32h-16a32 32 0 0 1 32 32v86.629a24.026 24.026 0 0 0 16 0z" fill="#4b55a5"/><path d="m80 280a32 32 0 0 1 32 32v152a0 0 0 0 1 0 0h-64a0 0 0 0 1 0 0v-152a32 32 0 0 1 32-32z" fill="#55525b"/><path d="m72 48h80a16 16 0 0 1 16 16 0 0 0 0 1 0 0h-112a0 0 0 0 1 0 0 16 16 0 0 1 16-16z" fill="#fabe19"/><path d="m56 152h16v8h-16z" fill="#d7e6f0"/><path d="m56 160h16a8 8 0 0 1 8 8v44a4 4 0 0 1 -4 4h-24a4 4 0 0 1 -4-4v-44a8 8 0 0 1 8-8z" fill="#fabe19"/><path d="m68 168h12a0 0 0 0 1 0 0v44a4 4 0 0 1 -4 4h-12a0 0 0 0 1 0 0v-44a4 4 0 0 1 4-4z" fill="#f5871e"/><path d="m56 64h16v88h-16z" fill="#fabe19"/><path d="m368 256h40a0 0 0 0 1 0 0v8a16 16 0 0 1 -16 16h-24a0 0 0 0 1 0 0v-24a0 0 0 0 1 0 0z" fill="#d7322d"/></svg>