<svg id="Capa_1" enable-background="new 0 0 512 512" height="512" viewBox="0 0 512 512" width="512" xmlns="http://www.w3.org/2000/svg"><circle cx="256" cy="256" fill="#5c5560" r="256"/><path d="m438.557 146.274v289.196c-46.446 47.24-111.083 76.528-182.554 76.528-71.481 0-136.119-29.299-182.565-76.539v-380.342c0-17.805 14.43-32.246 32.246-32.246h209.492z" fill="#16a663"/><path d="m438.561 146.276v103.422l-108.503-108.503 11.315-13.967z" fill="#12945a"/><path d="m438.561 146.276h-91.139c-17.808 0-32.243-14.436-32.243-32.243v-91.157z" fill="#89d2b5"/><path d="m339.333 242.922h-71.706-23.251-71.706-23.251v23.25 30.426 23.251 30.426 23.25 30.426 23.251h23.251 71.706 23.251 71.706 23.251v-23.251-30.426-23.25-30.425-23.251-30.426-23.25zm-166.665 23.251h71.706v30.426h-71.706zm0 53.678h71.706v30.426h-71.706zm0 84.103v-30.426h71.706v30.426zm166.665 0h-71.706v-30.426h71.706zm0-53.677h-71.706v-30.426h71.706zm0-53.677h-71.706v-30.426h71.706z" fill="#f2f2f2"/></svg>