<svg id="Capa_1" enable-background="new 0 0 512 512" height="512" viewBox="0 0 512 512" width="512" xmlns="http://www.w3.org/2000/svg"><g><g><path clip-rule="evenodd" d="m255.986 115.333c-35.999 0-71.999 13.748-99.466 41.187-27.439 27.467-41.187 63.467-41.187 99.466s13.748 71.999 41.187 99.466c27.467 27.467 63.466 41.187 99.466 41.187s71.999-13.719 99.466-41.187 41.187-63.466 41.187-99.466-13.719-71.999-41.187-99.466c-27.468-27.439-63.467-41.187-99.466-41.187zm-54.963 85.69h93.768 16.157v16.186 38.777 38.806 16.157h-16.157-38.806-38.777-16.186v-16.157-38.806-38.777-16.186z" fill="#bfdbff" fill-rule="evenodd"/></g><g><path clip-rule="evenodd" d="m255.986 201.023h-38.777-16.186v16.186 38.777 38.805 16.158h16.186 38.777 38.805 16.158v-16.158-38.805-38.777-16.186h-16.158z" fill="#7dd9c2" fill-rule="evenodd"/></g><g><path clip-rule="evenodd" d="m115.929 82.055c-9.354-9.354-24.519-9.354-33.873 0s-9.354 24.519 0 33.873 24.519 9.354 33.873 0 9.354-24.519 0-33.873z" fill="#ffe6b4" fill-rule="evenodd"/></g><g><path clip-rule="evenodd" d="m255.986 10c-13.238 0-23.952 10.715-23.952 23.952 0 13.238 10.715 23.981 23.952 23.981 13.238 0 23.981-10.743 23.981-23.981-.001-13.237-10.744-23.952-23.981-23.952z" fill="#ffe6b4" fill-rule="evenodd"/></g><g><path clip-rule="evenodd" d="m429.945 82.055c-9.354-9.354-24.548-9.354-33.902 0s-9.354 24.519 0 33.873 24.548 9.354 33.902 0c9.354-9.353 9.354-24.519 0-33.873z" fill="#ffe6b4" fill-rule="evenodd"/></g><g><path clip-rule="evenodd" d="m478.019 232.034c-13.238 0-23.952 10.715-23.952 23.952 0 13.238 10.715 23.981 23.952 23.981 13.209 0 23.896-10.686 23.981-23.867v-.113-.113c-.085-13.182-10.771-23.84-23.981-23.84z" fill="#ffe6b4" fill-rule="evenodd"/></g><g><path clip-rule="evenodd" d="m429.945 396.043c-9.354-9.354-24.548-9.354-33.902 0s-9.354 24.548 0 33.902 24.548 9.354 33.902 0 9.354-24.548 0-33.902z" fill="#ffe6b4" fill-rule="evenodd"/></g><g><path clip-rule="evenodd" d="m255.986 454.067c-13.238 0-23.952 10.715-23.952 23.952 0 13.238 10.715 23.981 23.952 23.981 13.238 0 23.981-10.743 23.981-23.981-.001-13.237-10.744-23.952-23.981-23.952z" fill="#ffe6b4" fill-rule="evenodd"/></g><g><path clip-rule="evenodd" d="m115.929 396.043c-9.354-9.354-24.519-9.354-33.873 0s-9.354 24.548 0 33.902 24.519 9.354 33.873 0 9.354-24.548 0-33.902z" fill="#ffe6b4" fill-rule="evenodd"/></g><g><path clip-rule="evenodd" d="m33.952 232.034c-13.237 0-23.952 10.714-23.952 23.952s10.715 23.981 23.952 23.981 23.981-10.743 23.981-23.981-10.743-23.952-23.981-23.952z" fill="#ffe6b4" fill-rule="evenodd"/></g><g><path d="m356.217 265.985c5.522 0 10-4.478 10-10s-4.478-10-10-10h-35.269v-18.776h20.302c5.522 0 10-4.478 10-10s-4.478-10-10-10h-20.302v-6.186c0-5.522-4.478-10-10-10h-6.157v-20.273c0-5.522-4.478-10-10-10s-10 4.478-10 10v20.273h-18.806v-35.24c0-5.522-4.478-10-10-10s-10 4.478-10 10v35.24h-18.776v-20.273c0-5.522-4.478-10-10-10s-10 4.478-10 10v20.273h-6.186c-5.522 0-10 4.478-10 10v6.186h-20.273c-5.522 0-10 4.478-10 10s4.478 10 10 10h20.273v18.776h-35.24c-5.522 0-10 4.478-10 10s4.478 10 10 10h35.24v18.806h-20.273c-5.522 0-10 4.478-10 10s4.478 10 10 10h20.273v6.157c0 5.522 4.478 10 10 10h6.186v20.302c0 5.522 4.478 10 10 10s10-4.478 10-10v-20.302h18.776v35.269c0 5.522 4.478 10 10 10s10-4.478 10-10v-35.269h18.806v20.302c0 5.522 4.478 10 10 10s10-4.478 10-10v-20.302h6.157c5.522 0 10-4.478 10-10v-6.157h20.302c5.522 0 10-4.478 10-10s-4.478-10-10-10h-20.302v-18.806zm-145.194 34.963v-89.925h89.925v89.925z"/><path d="m478.02 222.033c-15.242 0-28.169 10.096-32.448 23.952h-39.39c-.028-.422-.051-.843-.082-1.265-.413-5.508-5.21-9.632-10.721-9.223-5.507.413-9.637 5.213-9.223 10.721 4.23 56.333-28.009 108.706-80.227 130.325-66.466 27.542-142.954-4.135-170.502-70.614-27.543-66.466 4.135-142.953 70.613-170.502 52.213-21.63 112.058-7.389 148.918 35.439 3.603 4.186 9.918 4.659 14.103 1.056 4.186-3.603 4.658-9.916 1.056-14.103-.281-.327-.569-.647-.853-.971l27.834-27.833c4.838 2.566 10.261 3.929 15.896 3.929 9.078 0 17.609-3.531 24.021-9.944 6.413-6.413 9.944-14.939 9.944-24.008s-3.531-17.596-9.945-24.008c-6.412-6.413-14.943-9.944-24.021-9.944s-17.609 3.531-24.021 9.944c-6.414 6.412-9.945 14.938-9.945 24.008 0 5.628 1.363 11.047 3.928 15.882l-27.822 27.822c-25.18-22.076-56.603-34.791-89.147-36.936v-39.331c13.872-4.28 23.981-17.219 23.981-32.477 0-18.722-15.244-33.952-33.982-33.952-18.722 0-33.952 15.23-33.952 33.952 0 15.255 10.096 28.192 23.952 32.475v39.352c-16.048 1.086-32.115 4.758-47.6 11.173-15.573 6.453-29.49 15.235-41.516 25.776l-27.854-27.854c2.565-4.835 3.928-10.253 3.928-15.882 0-9.069-3.531-17.596-9.944-24.008-6.413-6.413-14.939-9.944-24.008-9.944s-17.595 3.531-24.007 9.944c0 0 0 0-.001.001-6.413 6.412-9.944 14.938-9.944 24.007s3.531 17.595 9.944 24.007c6.412 6.414 14.938 9.945 24.008 9.945 5.628 0 11.047-1.363 15.882-3.928l27.88 27.879c-21.652 24.822-34.663 56.231-36.906 89.089h-39.42c-4.282-13.856-17.219-23.952-32.475-23.952-18.722.001-33.952 15.232-33.952 33.953 0 18.737 15.23 33.981 33.952 33.981 15.258 0 28.197-10.11 32.477-23.981h39.381c1.05 15.964 4.684 32.021 11.141 47.601 6.454 15.573 15.253 29.473 25.793 41.498l-27.87 27.871c-4.835-2.565-10.253-3.928-15.882-3.928-9.069 0-17.596 3.531-24.008 9.944-6.413 6.413-9.944 14.944-9.944 24.022 0 9.077 3.531 17.608 9.944 24.021 6.412 6.414 14.938 9.945 24.008 9.945 9.068 0 17.595-3.531 24.007-9.944 6.414-6.412 9.945-14.943 9.945-24.021 0-5.635-1.363-11.058-3.929-15.896l27.883-27.884c24.822 21.653 56.227 34.668 89.086 36.908v39.449c-13.856 4.279-23.952 17.205-23.952 32.448 0 18.737 15.23 33.98 33.952 33.98 18.737 0 33.981-15.243 33.981-33.98 0-15.245-10.11-28.174-23.981-32.45v-39.417c15.963-1.051 32.022-4.676 47.598-11.131 15.483-6.41 29.438-15.17 41.551-25.745l27.822 27.822c-2.566 4.838-3.929 10.261-3.929 15.896 0 9.078 3.531 17.609 9.944 24.021 6.413 6.413 14.944 9.944 24.022 9.944 9.077 0 17.608-3.531 24.021-9.944 0 0 0 0 .001-.001 6.413-6.412 9.944-14.943 9.944-24.021s-3.531-17.609-9.944-24.021c-6.412-6.414-14.943-9.945-24.021-9.945-5.635 0-11.058 1.363-15.896 3.929l-27.807-27.807c21.501-24.529 34.729-55.744 36.913-89.164h39.365c4.276 13.872 17.205 23.981 32.45 23.981 18.737 0 33.98-15.244 33.98-33.981.002-18.721-15.241-33.952-33.978-33.952zm-74.906-132.906c2.636-2.636 6.145-4.087 9.88-4.087s7.244 1.451 9.879 4.086c0 0 0 .001.001.001 2.635 2.635 4.086 6.139 4.086 9.865s-1.451 7.229-4.087 9.866c-2.635 2.635-6.144 4.086-9.879 4.086s-7.244-1.451-9.88-4.087-4.087-6.139-4.087-9.865 1.452-7.23 4.087-9.865zm-161.081-55.175c0-7.693 6.259-13.952 13.952-13.952 7.709 0 13.981 6.259 13.981 13.952 0 7.709-6.272 13.98-13.981 13.98-7.693.001-13.952-6.271-13.952-13.98zm-133.176 74.905c-2.636 2.636-6.139 4.087-9.865 4.087s-7.23-1.451-9.865-4.087c-2.636-2.636-4.087-6.139-4.087-9.865s1.451-7.23 4.086-9.865h.001c2.635-2.636 6.139-4.087 9.865-4.087s7.229 1.451 9.866 4.087c2.635 2.635 4.086 6.139 4.086 9.865s-1.451 7.23-4.087 9.865zm-74.905 161.11c-7.693 0-13.952-6.272-13.952-13.981 0-7.693 6.259-13.952 13.952-13.952 7.709 0 13.98 6.259 13.98 13.952.001 7.708-6.271 13.981-13.98 13.981zm74.905 152.906c-2.636 2.636-6.139 4.087-9.865 4.087s-7.23-1.451-9.865-4.086c0 0 0-.001-.001-.001-2.635-2.635-4.086-6.144-4.086-9.879s1.451-7.244 4.087-9.881c2.635-2.635 6.139-4.086 9.865-4.086s7.229 1.451 9.865 4.087 4.087 6.145 4.087 9.88-1.451 7.244-4.087 9.879zm161.11 55.147c0 7.709-6.272 13.98-13.981 13.98-7.693 0-13.952-6.271-13.952-13.98 0-7.693 6.259-13.952 13.952-13.952 7.708-.001 13.981 6.258 13.981 13.952zm133.147-74.906c2.636-2.636 6.145-4.087 9.88-4.087s7.244 1.451 9.879 4.087c2.636 2.636 4.087 6.145 4.087 9.88s-1.451 7.244-4.086 9.879c-.001 0-.001 0-.001 0-2.635 2.636-6.144 4.087-9.879 4.087s-7.244-1.451-9.881-4.087c-2.635-2.635-4.086-6.144-4.086-9.879s1.452-7.244 4.087-9.88zm74.906-133.147c-7.693 0-13.952-6.272-13.952-13.981 0-7.693 6.259-13.952 13.952-13.952 7.709 0 13.98 6.259 13.98 13.952 0 7.708-6.271 13.981-13.98 13.981z"/><path d="m381.311 193.27c-3.621 1.81-5.833 5.746-5.496 9.781.354 4.226 3.437 7.879 7.556 8.903 4.397 1.093 9.118-1.006 11.24-5.004 1.917-3.613 1.422-8.151-1.245-11.257-2.951-3.436-8.009-4.451-12.055-2.423z"/></g></g></svg>