<svg id="Capa_1" enable-background="new 0 0 512 512" height="512" viewBox="0 0 512 512" width="512" xmlns="http://www.w3.org/2000/svg"><g><g><path clip-rule="evenodd" d="m256 35.945v201.411c0 14.32 11.629 25.945 25.981 25.945 13.132 0 23.995-9.754 25.726-22.429 19.372-.255 35.539-13.838 39.709-32.014.681-2.977 1.021-6.068 1.021-9.272 0-7.344-1.9-14.235-5.276-20.218 16.933-6.777 28.902-23.365 28.902-42.704 0-19.367-11.969-35.955-28.902-42.732 3.375-5.983 5.276-12.873 5.276-20.218 0-22.628-18.181-40.974-40.73-41.286-1.731-12.674-12.594-22.428-25.726-22.428-14.352 0-25.981 11.626-25.981 25.945z" fill="#ffbecb" fill-rule="evenodd"/></g><g><path clip-rule="evenodd" d="m204.293 32.429c-22.549.312-40.758 18.658-40.758 41.286 0 7.344 1.929 14.235 5.304 20.218-16.961 6.777-28.902 23.365-28.902 42.732 0 19.339 11.941 35.927 28.902 42.704-3.375 5.983-5.304 12.873-5.304 20.218 0 3.204.369 6.295 1.049 9.272 4.169 18.176 20.337 31.758 39.709 32.014 1.73 12.675 12.593 22.429 25.726 22.429 14.352 0 25.981-11.626 25.981-25.945v-201.412c0-14.319-11.629-25.945-25.981-25.945-13.132 0-23.995 9.754-25.726 22.429z" fill="#ff7d97" fill-rule="evenodd"/></g><g><path clip-rule="evenodd" d="m392.088 254.086c13.501 0 24.449 10.945 24.449 24.443 0 13.497-10.948 24.414-24.449 24.414s-24.421-10.917-24.421-24.414c0-13.498 10.92-24.443 24.421-24.443zm-272.176 0c13.501 0 24.421 10.945 24.421 24.443 0 13.497-10.92 24.414-24.421 24.414s-24.449-10.917-24.449-24.414c0-13.498 10.948-24.443 24.449-24.443zm-89.912-155.446v247.46h452v-247.46c0-2.58-2.127-4.707-4.708-4.707h-134.131c16.933 6.777 28.902 23.365 28.902 42.732 0 19.339-11.969 35.927-28.902 42.704 3.375 5.983 5.276 12.873 5.276 20.218 0 3.204-.34 6.295-1.021 9.272-4.198 18.176-20.337 31.758-39.709 32.014-1.73 12.675-12.593 22.429-25.726 22.429-14.352 0-25.981-11.626-25.981-25.945 0 14.32-11.629 25.945-25.981 25.945-13.132 0-23.995-9.754-25.726-22.429-19.372-.255-35.539-13.838-39.709-32.014-.681-2.977-1.049-6.068-1.049-9.272 0-7.344 1.929-14.235 5.304-20.218-16.961-6.777-28.902-23.365-28.902-42.704 0-19.367 11.941-35.955 28.902-42.732h-134.131c-2.581 0-4.708 2.127-4.708 4.707z" fill="#bfdbff" fill-rule="evenodd"/></g><g><path clip-rule="evenodd" d="m482 346.1h-452v43.271c0 2.58 2.127 4.707 4.708 4.707h158.665 125.253 158.665c2.581 0 4.708-2.127 4.708-4.707v-43.271z" fill="#80b6ff" fill-rule="evenodd"/></g><g><path clip-rule="evenodd" d="m193.374 394.078-19.089 63.007h163.43l-19.089-63.007z" fill="#bfdbff" fill-rule="evenodd"/></g><g><path clip-rule="evenodd" d="m337.715 457.085h-163.43-28.25c-12.366 0-22.464 10.095-22.464 22.458v22.457h264.858v-22.458c0-12.363-10.097-22.458-22.464-22.458h-28.25z" fill="#80b6ff" fill-rule="evenodd"/></g><g><path clip-rule="evenodd" d="m119.912 254.086c-13.501 0-24.449 10.945-24.449 24.443 0 13.497 10.948 24.414 24.449 24.414s24.421-10.917 24.421-24.414c0-13.498-10.92-24.443-24.421-24.443z" fill="#ffe6b4" fill-rule="evenodd"/></g><g><path clip-rule="evenodd" d="m392.088 254.086c-13.501 0-24.421 10.945-24.421 24.443 0 13.497 10.92 24.414 24.421 24.414s24.449-10.917 24.449-24.414c0-13.498-10.948-24.443-24.449-24.443z" fill="#ffe6b4" fill-rule="evenodd"/></g><g><path d="m477.292 83.933h-119.885c.677-3.348 1.029-6.772 1.029-10.218 0-25.265-18.621-46.52-42.86-50.588-5.229-13.614-18.495-23.127-33.596-23.127-10.202 0-19.426 4.265-25.98 11.102-6.554-6.837-15.778-11.102-25.98-11.102-15.101 0-28.366 9.512-33.596 23.126-24.255 4.066-42.889 25.323-42.889 50.589 0 3.441.355 6.865 1.038 10.218h-119.865c-8.11 0-14.708 6.597-14.708 14.707v93.603c0 5.522 4.478 10 10 10s10-4.478 10-10v-88.31h100.414c-6.683 9.302-10.478 20.654-10.478 32.732 0 19.556 9.951 37.214 26.032 47.332-1.531 4.792-2.347 9.805-2.419 14.861h-33.637c-.268 0-.486.014-.679.034-5.204.351-9.321 4.673-9.321 9.966v36.712c-14.133 4.295-24.449 17.443-24.449 32.958 0 18.977 15.454 34.415 34.449 34.415 18.979 0 34.421-15.438 34.421-34.415 0-15.512-10.304-28.658-24.421-32.955v-26.715h27.424c6.64 16.208 21.357 28.37 39.09 31.325 5.231 13.611 18.495 23.118 33.593 23.118 10.202 0 19.427-4.265 25.98-11.102 6.554 6.837 15.778 11.102 25.98 11.102 15.098 0 28.361-9.508 33.593-23.119 17.722-2.957 32.429-15.117 39.064-31.324h27.45v26.715c-14.117 4.298-24.421 17.443-24.421 32.955 0 18.977 15.441 34.415 34.421 34.415 18.995 0 34.449-15.438 34.449-34.415 0-15.515-10.316-28.662-24.449-32.958v-36.712c0-5.522-4.478-10-10-10h-33.665c-.072-5.066-.882-10.08-2.401-14.86 16.087-10.123 26.042-27.784 26.042-47.333 0-12.076-3.797-23.428-10.484-32.732h100.422v232.168h-432v-54.027c0-5.522-4.478-10-10-10s-10 4.478-10 10v107.298c0 8.109 6.598 14.707 14.708 14.707h145.187l-13.029 43.007h-20.831c-17.9 0-32.464 14.561-32.464 32.457v22.457c0 5.522 4.478 10 10 10h264.857c5.522 0 10-4.478 10-10v-22.458c0-17.896-14.563-32.457-32.464-32.457h-20.831l-13.029-43.007h145.187c8.11 0 14.708-6.598 14.708-14.707v-290.731c.001-8.11-6.597-14.707-14.707-14.707zm-342.959 194.595c0 7.948-6.469 14.415-14.421 14.415-7.968 0-14.449-6.467-14.449-14.415 0-7.964 6.481-14.442 14.449-14.442 7.952 0 14.421 6.478 14.421 14.442zm111.667-41.172c0 8.792-7.169 15.945-15.98 15.945-7.945 0-14.746-5.925-15.818-13.782-.67-4.907-4.831-8.585-9.782-8.646-17.029-.214-30.884-14.249-30.884-31.287 0-5.357 1.388-10.649 4.014-15.304 1.417-2.512 1.681-5.514.723-8.233-.958-2.721-3.044-4.896-5.722-5.966-13.737-5.489-22.613-18.606-22.613-33.418 0-14.763 8.801-27.834 22.433-33.366 3.551-1.195 7.294-1.805 11.134-1.805 8.655 0 16.977 3.176 23.432 8.942 1.907 1.704 4.287 2.542 6.658 2.542 2.749 0 5.486-1.127 7.462-3.338 3.679-4.119 3.323-10.44-.796-14.12-10.126-9.045-23.18-14.026-36.756-14.026-2.963 0-5.894.238-8.779.7-.776-2.75-1.189-5.603-1.189-8.479 0-17.016 13.859-31.051 30.896-31.286 4.947-.068 9.102-3.744 9.771-8.646 1.069-7.858 7.87-13.783 15.816-13.783 8.812 0 15.98 7.153 15.98 15.945zm160.537 41.172c0 7.948-6.481 14.415-14.449 14.415-7.952 0-14.421-6.467-14.421-14.415 0-7.964 6.469-14.442 14.421-14.442 7.968 0 14.449 6.478 14.449 14.442zm-67.092-108.443c-2.677 1.071-4.761 3.246-5.718 5.966-.956 2.721-.692 5.721.724 8.231 2.607 4.621 3.985 9.913 3.985 15.304 0 17.038-13.842 31.073-30.855 31.287-4.951.062-9.112 3.739-9.782 8.646-1.072 7.857-7.873 13.782-15.818 13.782-8.812 0-15.98-7.153-15.98-15.945v-201.411c-.001-8.792 7.168-15.945 15.979-15.945 7.945 0 14.746 5.925 15.818 13.782.669 4.902 4.823 8.578 9.771 8.646 17.02.235 30.867 14.271 30.867 31.286 0 2.884-.407 5.737-1.173 8.477-2.88-.46-5.808-.698-8.766-.698-13.576 0-26.63 4.981-36.756 14.026-4.119 3.68-4.475 10.001-.796 14.12 1.976 2.211 4.713 3.338 7.462 3.338 2.37 0 4.751-.839 6.658-2.542 6.455-5.767 14.776-8.942 23.432-8.942 3.839 0 7.581.61 11.131 1.804 13.634 5.543 22.436 18.615 22.436 33.367-.001 14.804-8.878 27.922-22.619 33.421zm-1.807 297c.024 0 .048.003.073.003.027 0 .053-.003.08-.003h28.174c6.873 0 12.464 5.588 12.464 12.457v12.458h-244.858v-12.458c0-6.869 5.591-12.457 12.464-12.457h28.174c.027 0 .053.003.08.003.024 0 .048-.003.073-.003zm-149.875-20 13.029-43.007h110.416l13.029 43.007zm284.237-63.007h-432v-27.978h432z"/><path d="m321.963 132.897c-11.702 4.533-20.938 13.357-26.004 24.848-5.066 11.489-5.354 24.262-.807 35.963 1.538 3.959 5.318 6.382 9.323 6.382 1.204 0 2.43-.22 3.619-.682 5.148-2 7.7-7.795 5.7-12.942-2.61-6.72-2.446-14.053.464-20.651 2.909-6.598 8.211-11.665 14.929-14.267 5.149-1.995 7.707-7.787 5.713-12.938-1.995-5.15-7.787-7.708-12.937-5.713z"/><path d="m190.037 132.897c-5.148-1.993-10.942.563-12.938 5.713-1.994 5.15.563 10.942 5.713 12.938 6.718 2.602 12.02 7.669 14.929 14.267 2.91 6.599 3.074 13.932.464 20.651-2 5.147.552 10.942 5.7 12.942 1.189.462 2.414.682 3.619.682 4.005 0 7.785-2.424 9.323-6.382 4.547-11.701 4.26-24.474-.807-35.963-5.065-11.49-14.301-20.314-26.003-24.848z"/><path d="m30 247.186c5.522 0 10-4.506 10-10.028s-4.478-10-10-10-10 4.478-10 10v.057c0 5.521 4.478 9.971 10 9.971z"/></g></g></svg>