<?xml version="1.0"?>
<svg xmlns="http://www.w3.org/2000/svg" viewBox="0 0 64 64" width="512" height="512"><path d="m53 22.33331c0 5.14862-2.07739 12.19446-5.48175 18.22022-2.04956 3.62762-6.51825 8.28662-6.51825 12.44647h-9v-50c11.598 0 21 8.37476 21 19.33331z" fill="#dbe6fd"/><path d="m32 20h9v12h-9z" fill="#17afdc"/><path d="m11 22.33331c0 5.14862 2.07739 12.19446 5.48175 18.22022 2.04956 3.62762 6.51825 8.28662 6.51825 12.44647h9v-50c-11.598 0-21 8.37476-21 19.33331z" fill="#fccc38"/><path d="m40.2439 57h-16.4878a2 2 0 0 1 -2-2v-.07018a1.885 1.885 0 0 1 2-1.85964h16.4878a1.885 1.885 0 0 1 2 1.85964v.07018a2 2 0 0 1 -2 2z" fill="#5358a1"/><rect fill="#5358a1" height="4.07018" rx="2" width="21" x="21.5" y="57"/><path d="m30.29468 12.11407-.43878 2.08783a11.88531 11.88531 0 0 0 -1.90314.51282l-1.43317-1.59967a13.96462 13.96462 0 0 0 -2.93615 1.71643l.66284 2.01831a12.064 12.064 0 0 0 -1.39612 1.39621l-2.01837-.663a13.96322 13.96322 0 0 0 -1.71656 2.93628l1.59961 1.43322a11.87909 11.87909 0 0 0 -.51287 1.9032l-2.0879.43885a12.805 12.805 0 0 0 0 3.41076l2.08783.43878a11.87733 11.87733 0 0 0 .51282 1.90314l-1.59967 1.43317a13.96613 13.96613 0 0 0 1.71643 2.93615l2.01831-.66284a12.064 12.064 0 0 0 1.39621 1.39613l-.663 2.01837a13.96389 13.96389 0 0 0 2.93634 1.71662l1.43323-1.59967a11.88788 11.88788 0 0 0 1.90319.51294l.43885 2.08783a14.07546 14.07546 0 0 0 1.70539.11407v-28a14.07365 14.07365 0 0 0 -1.70532.11407z" fill="#f4393d"/><path d="m32 34a8 8 0 0 1 0-16" fill="#f7edd3"/><circle cx="38" cy="11" fill="#fccc38" r="2"/><circle cx="46" cy="16" fill="#fccc38" r="2"/><circle cx="51" cy="29" fill="#fccc38" r="2"/><circle cx="40" cy="41" fill="#fccc38" r="2"/><path d="m42.56934 50.43555-1.85934-.73633a16.936 16.936 0 0 1 .93408-1.95313l1.751.9668a14.97006 14.97006 0 0 0 -.82574 1.72266z"/><path d="m44.41211 47.02832-1.67871-1.08594c.375-.58008.76709-1.15429 1.16015-1.71875l1.64161 1.14258c-.38037.54688-.75977 1.10156-1.12305 1.66211z"/><path d="m46.70361 43.69434-1.64261-1.14063c.394-.56836.77-1.12207 1.10742-1.65723l1.69238 1.06446c-.35201.56054-.74459 1.13965-1.15719 1.7334z"/><path d="m48.90967 40.13281-1.76367-.94336q.46875-.87744.89892-1.77832l1.80469.86133q-.44898.94043-.93994 1.86035z"/><path d="m50.70605 36.376-1.84082-.78321c.26172-.61425.50928-1.23339.7417-1.85156l1.87207.70313q-.36327.96823-.77295 1.93164z"/><path d="m53.91553 24.2959-1.99317-.168c.05176-.60935.07764-1.20212.07764-1.75974l-.001-.18359 2-.01562.001.19921c0 .61426-.02832 1.2627-.08447 1.92774z"/><path d="m51.87549 20.2627a17.28768 17.28768 0 0 0 -.333-1.89551l1.94727-.45508a19.3787 19.3787 0 0 1 .37207 2.11426z"/><path d="m51.00049 16.52148a17.47021 17.47021 0 0 0 -.7461-1.77539l1.79786-.875a19.26374 19.26374 0 0 1 .832 1.98047z"/><path d="m49.31641 13.06641a18.208 18.208 0 0 0 -1.11817-1.57227l1.56641-1.24414a20.19655 20.19655 0 0 1 1.24219 1.748z"/><path d="m46.91846 10.04688a18.90306 18.90306 0 0 0 -1.4253-1.30762l1.27442-1.541a20.94319 20.94319 0 0 1 1.57666 1.44629z"/><path d="m43.93994 7.57813c-.53125-.35743-1.09033-.69532-1.66162-1.00391l.95117-1.75977c.62793.33985 1.24219.71094 1.82666 1.10352z"/><path d="m40.52637 5.73438c-.58643-.249-1.19922-.47559-1.82227-.67286l.60547-1.90625c.68213.2168 1.355.46485 1.999.73926z"/><path d="m36.82324 4.55664c-.62793-.13965-1.27344-.25195-1.91845-.335l.25585-1.98438c.70411.0918 1.40918.21485 2.09522.36622z"/><path d="m51 26a2.99507 2.99507 0 0 0 -2.81573 2h-6.18427v-4h4a.99974.99974 0 0 0 1-1v-4.18427a3.00011 3.00011 0 1 0 -2-.00006v3.18433h-3v-2a.99974.99974 0 0 0 -1-1h-2v-5.18427a3.00011 3.00011 0 1 0 -2-.00006v5.18433h-4v-15.96484a.99973.99973 0 0 0 -1-1c-12.33643 0-22 8.93164-22 20.333 0 5.416 2.1499 12.58692 5.61133 18.71289.62158 1.09961 1.43262 2.25586 2.291 3.48047 1.81507 2.58741 3.83509 5.49695 4.05475 8.02979a2.8424 2.8424 0 0 0 -1.20123 2.37353 2.97 2.97 0 0 0 .66186 1.85657 3.08309 3.08309 0 0 0 -.91771 2.21375 3.00328 3.00328 0 0 0 3 3h17a3.01911 3.01911 0 0 0 3-3.07032 2.98652 2.98652 0 0 0 -.92035-2.154 3.08737 3.08737 0 0 0 .66449-1.91632 2.86784 2.86784 0 0 0 -3-2.85937h-7.24414v-19.03515h2v3a.99974.99974 0 0 0 1 1h3v1.18427a3 3 0 1 0 2 0v-2.18427a.99974.99974 0 0 0 -1-1h-3v-2h4a.99974.99974 0 0 0 1-1v-2h6.18433a2.99472 2.99472 0 1 0 2.81567-4zm-5-11a1 1 0 1 1 -1 1 1.001 1.001 0 0 1 1-1zm-26.46 28.41309c-.83008-1.1836-1.61377-2.30079-2.1875-3.31641-3.25143-5.75488-5.3525-12.71387-5.3525-17.72852 0-9.97265 8.26709-17.84961 19-18.31152v6.986c-.26544.0199-.53632.044-.82617.07947a.99973.99973 0 0 0 -.85742.78613l-.30469 1.44922q-.37647.08936-.751.20215l-.99658-1.11133a.99859.99859 0 0 0 -1.13672-.25293 15.04544 15.04544 0 0 0 -3.146 1.83692 1.00013 1.00013 0 0 0 -.34815 1.11035l.459 1.39844c-.189.17773-.373.3623-.55127.55078l-1.397-.459a1.006 1.006 0 0 0 -1.11035.34766 15.00777 15.00777 0 0 0 -1.83838 3.14746.99945.99945 0 0 0 .25293 1.13672l1.11182.99609q-.11207.37061-.20068.74317l-1.55518.31054a.99982.99982 0 0 0 -.80416.98044v3.41016a.99982.99982 0 0 0 .8042.98047l1.55518.31054q.08862.37208.20068.74317l-1.11231.99609a1.001 1.001 0 0 0 -.25293 1.13672 15.01489 15.01489 0 0 0 1.83838 3.14746 1.0047 1.0047 0 0 0 1.11035.34766l1.397-.459c.17871.18848.3623.373.55127.55078l-.459 1.39649a1.00067 1.00067 0 0 0 .34766 1.11035 15.01279 15.01279 0 0 0 3.147 1.83887 1.00171 1.00171 0 0 0 1.13672-.25293l.99658-1.11133q.37427.1128.751.20215l.3042 1.44824a.9996.9996 0 0 0 .85742.78711c.2901.03552.5611.05957.82666.07947v11.07777h-7.0863c-.40869-2.94703-2.49616-5.94501-4.37376-8.62207zm3.46-17.41309a9.01043 9.01043 0 0 0 8 8.941v3.4389l-.16553-.78711a1.00037 1.00037 0 0 0 -.80127-.77929 10.842 10.842 0 0 1 -1.74218-.46973 1.0156 1.0156 0 0 0 -.33838-.05859.999.999 0 0 0 -.74463.333l-.94043 1.04882a12.95867 12.95867 0 0 1 -1.50537-.88379l.43408-1.32129a1.00118 1.00118 0 0 0 -.3042-1.07617 10.9575 10.9575 0 0 1 -1.27979-1.27929 1.005 1.005 0 0 0 -1.0747-.30274l-1.3208.43457a12.99514 12.99514 0 0 1 -.88428-1.50586l1.0498-.94043a1.00216 1.00216 0 0 0 .27393-1.083 10.87657 10.87657 0 0 1 -.46973-1.74218.99963.99963 0 0 0 -.78857-.80274l-1.39795-.27931v-1.76954l1.398-.27929a.99963.99963 0 0 0 .78857-.80274 10.91521 10.91521 0 0 1 .46968-1.7432 1.00063 1.00063 0 0 0 -.27441-1.083l-1.04884-.93942a13.12894 13.12894 0 0 1 .88379-1.50586l1.32129.43457a1.00545 1.00545 0 0 0 1.0747-.30274 11.18363 11.18363 0 0 1 1.28076-1.28222.999.999 0 0 0 .30274-1.07324l-.43358-1.32129a13.0343 13.0343 0 0 1 1.50488-.88379l.94043 1.04883a1.0039 1.0039 0 0 0 1.083.27441 10.81464 10.81464 0 0 1 1.74218-.46973.99925.99925 0 0 0 .80127-.77832l.16554-.78711v3.43791a9.01043 9.01043 0 0 0 -8 8.941zm8-6.92017v13.84027a6.99069 6.99069 0 0 1 0-13.84027zm9.5 40.95533h-17a1.01848 1.01848 0 0 1 -1-1.07032 1.001 1.001 0 0 1 1-1h17a1.01848 1.01848 0 0 1 1 1.07032 1.001 1.001 0 0 1 -1 1zm-.25586-6a.91608.91608 0 0 1 1 .92968 1.001 1.001 0 0 1 -1 1h-16.48828a1.01847 1.01847 0 0 1 -1-1.07031.90341.90341 0 0 1 1-.85937zm-.24414-14.03516a1 1 0 1 1 -1 1 1.001 1.001 0 0 1 1-1zm-2-30a1 1 0 1 1 -1 1 1.001 1.001 0 0 1 1-1zm2 21h-7v-10h7zm11-1a1 1 0 1 1 1-1 1.001 1.001 0 0 1 -1 1z"/><g fill="#fccc38"><path d="m4 56h2v2h-2z"/><path d="m4 60h2v2h-2z"/><path d="m6 58h2v2h-2z"/><path d="m2 58h2v2h-2z"/><path d="m59 2h2v2h-2z"/><path d="m59 6h2v2h-2z"/><path d="m61 4h2v2h-2z"/><path d="m57 4h2v2h-2z"/></g></svg>
