<svg id="Layer_1_1_" enable-background="new 0 0 64 64" height="512" viewBox="0 0 64 64" width="512" xmlns="http://www.w3.org/2000/svg"><path d="m15 2h34v16h-34z" fill="#71d2df"/><path d="m59 54h2v3c0 2.21-1.79 4-4 4h-50c-2.21 0-4-1.79-4-4v-3h3 19l1 2h12l1-2z" fill="#8360f4"/><path d="m59 22v32h-20l-1 2h-12l-1-2h-19v-32c0-2.21 1.79-4 4-4h45c2.21 0 4 1.79 4 4z" fill="#6599ed"/><path d="m10 22h45v28h-45z" fill="#f6db40"/><circle cx="49" cy="28" fill="#71d2df" r="2"/><circle cx="41" cy="35" fill="#71d2df" r="2"/><circle cx="32" cy="33" fill="#71d2df" r="2"/><circle cx="23" cy="42" fill="#71d2df" r="2"/><circle cx="16" cy="28" fill="#71d2df" r="2"/><g fill="#1a1a1a"><path d="m61 53h-1v-31c0-2.757-2.243-5-5-5h-6v-2h-2v2h-2v-3h-2v3h-6v-2h-2v2h-6v-4h-2v4h-6v-2h-2v2h-2v-3h-2v3h-5c-2.757 0-5 2.243-5 5v31h-2c-.553 0-1 .448-1 1v3c0 2.757 2.243 5 5 5h50c2.757 0 5-2.243 5-5v-3c0-.552-.447-1-1-1zm-54-31c0-1.654 1.346-3 3-3h45c1.654 0 3 1.346 3 3v31h-19c-.379 0-.725.214-.895.553l-.723 1.447h-10.764l-.724-1.447c-.169-.339-.515-.553-.894-.553h-18zm53 35c0 1.654-1.346 3-3 3h-50c-1.654 0-3-1.346-3-3v-2h20.382l.724 1.447c.169.339.515.553.894.553h12c.379 0 .725-.214.895-.553l.723-1.447h20.382z"/><path d="m56 50v-28c0-.552-.447-1-1-1h-45c-.553 0-1 .448-1 1v28c0 .552.447 1 1 1h45c.553 0 1-.448 1-1zm-2-10.414-3.707 3.707c-.187.187-.293.442-.293.707v5h-3v-5.586l2.707-2.707c.188-.187.293-.442.293-.707v-9.184c1.161-.414 2-1.514 2-2.816s-.839-2.402-2-2.816v-2.184h4zm-32 2.414c0-.551.448-1 1-1s1 .449 1 1-.448 1-1 1-1-.449-1-1zm2 2.816c1.161-.414 2-1.514 2-2.816 0-1.654-1.346-3-3-3s-3 1.346-3 3c0 1.302.839 2.402 2 2.816v4.184h-4v-9.586l4.707-4.707c.188-.187.293-.442.293-.707v-11h2v13c0 .265.105.52.293.707l5.707 5.707v6.586h-7zm8-10.816c-.552 0-1-.449-1-1s.448-1 1-1 1 .449 1 1-.448 1-1 1zm-1-3.816c-1.161.414-2 1.514-2 2.816s.839 2.402 2 2.816v3.77l-4-4v-12.586h4zm2 5.632c1.161-.414 2-1.514 2-2.816s-.839-2.402-2-2.816v-7.184h4v2c0 .265.105.52.293.707l2.707 2.707v3.77c-1.161.414-2 1.514-2 2.816s.839 2.402 2 2.816v1.77l-4.707 4.707c-.187.187-.293.442-.293.707v4h-2zm8 .184c-.552 0-1-.449-1-1s.448-1 1-1 1 .449 1 1-.448 1-1 1zm0-9.414-2-2v-1.586h4v1.586zm-4 18.828 3-3v6.586h-3zm5-7.598c1.161-.414 2-1.514 2-2.816s-.839-2.402-2-2.816v-3.77l2.707-2.707c.188-.187.293-.442.293-.707v-2h3v2.184c-1.161.414-2 1.514-2 2.816s.839 2.402 2 2.816v8.77l-2.707 2.707c-.187.187-.293.442-.293.707v6h-3zm7-8.816c-.552 0-1-.449-1-1s.448-1 1-1 1 .449 1 1-.448 1-1 1zm-33 0c-.552 0-1-.449-1-1s.448-1 1-1 1 .449 1 1-.448 1-1 1zm-1-6v2.184c-1.161.414-2 1.514-2 2.816s.839 2.402 2 2.816v1.77l-4 4v-13.586zm-4 16.414 5.707-5.707c.188-.187.293-.442.293-.707v-2.184c1.161-.414 2-1.514 2-2.816s-.839-2.402-2-2.816v-2.184h4v10.586l-4.707 4.707c-.187.187-.293.442-.293.707v10h-5zm41 9.586v-4.586l2-2v6.586z"/><path d="m31 13h2v2h-2z"/><path d="m31 6h2v5h-2z"/><path d="m31 2h2v2h-2z"/><path d="m35 11h2v2h-2z"/><path d="m35 2h2v7h-2z"/><path d="m47 11h2v2h-2z"/><path d="m47 2h2v7h-2z"/><path d="m19 11h2v2h-2z"/><path d="m19 2h2v3h-2z"/><path d="m39 10h2v5h-2z"/><path d="m39 6h2v2h-2z"/><path d="m39 2h2v2h-2z"/><path d="m23 2h2v3h-2z"/><path d="m23 7h2v2h-2z"/><path d="m23 11h2v4h-2z"/><path d="m27 2h2v5h-2z"/><path d="m27 9h2v2h-2z"/><path d="m19 7h2v2h-2z"/><path d="m43 2h2v10h-2z"/><path d="m15 2h2v10h-2z"/></g></svg>