<?xml version="1.0" encoding="iso-8859-1"?>
<!-- Generator: Adobe Illustrator 19.0.0, SVG Export Plug-In . SVG Version: 6.00 Build 0)  -->
<svg version="1.1" id="Capa_1" xmlns="http://www.w3.org/2000/svg" xmlns:xlink="http://www.w3.org/1999/xlink" x="0px" y="0px"
	 viewBox="0 0 512 512" style="enable-background:new 0 0 512 512;" xml:space="preserve">
<path style="fill:#303C42;" d="M384,0H128c-23.531,0-42.667,19.135-42.667,42.667v426.667C85.333,492.865,104.469,512,128,512h256
	c23.531,0,42.667-19.135,42.667-42.667V42.667C426.667,19.135,407.531,0,384,0z"/>
<path style="fill:#CFE8FC;" d="M128,21.333h256c11.76,0,21.333,9.573,21.333,21.333v362.667H106.667V42.667
	C106.667,30.906,116.24,21.333,128,21.333z"/>
<linearGradient id="SVGID_1_" gradientUnits="userSpaceOnUse" x1="-43.6714" y1="640.4838" x2="-25.5757" y2="632.0478" gradientTransform="matrix(21.3333 0 0 -21.3333 996.3334 13791.667)">
	<stop  offset="0" style="stop-color:#FFFFFF;stop-opacity:0.4"/>
	<stop  offset="1" style="stop-color:#FFFFFF;stop-opacity:0"/>
</linearGradient>
<path style="fill:url(#SVGID_1_);" d="M128,21.333h256c11.76,0,21.333,9.573,21.333,21.333v362.667H106.667V42.667
	C106.667,30.906,116.24,21.333,128,21.333z"/>
<path style="fill:#F2F2F2;" d="M384,490.667H128c-11.76,0-21.333-9.573-21.333-21.333v-42.667h298.667v42.667
	C405.333,481.094,395.76,490.667,384,490.667z"/>
<g>
	<path style="fill:#303C42;" d="M245.333,64h21.333c5.896,0,10.667-4.771,10.667-10.667s-4.771-10.667-10.667-10.667h-21.333
		c-5.896,0-10.667,4.771-10.667,10.667S239.438,64,245.333,64z"/>
	<path style="fill:#303C42;" d="M288,448h-64c-5.896,0-10.667,4.771-10.667,10.667c0,5.896,4.771,10.667,10.667,10.667h64
		c5.896,0,10.667-4.771,10.667-10.667C298.667,452.771,293.896,448,288,448z"/>
	<circle style="fill:#303C42;" cx="373.333" cy="53.333" r="10.667"/>
	<path style="fill:#303C42;" d="M160,256h10.667v74.667c0,5.896,4.771,10.667,10.667,10.667h149.333
		c5.896,0,10.667-4.771,10.667-10.667V256H352c4.427,0,8.396-2.74,9.969-6.875c1.573-4.135,0.427-8.823-2.885-11.76l-96-85.333
		c-4.042-3.604-10.125-3.604-14.167,0l-96,85.333c-3.313,2.938-4.458,7.625-2.885,11.76C151.604,253.26,155.573,256,160,256z"/>
</g>
<path style="fill:#00AAE7;" d="M256,174.271l69.469,61.75c-3.26,1.823-5.469,5.313-5.469,9.313V320H192v-74.667
	c0-4-2.208-7.49-5.469-9.313L256,174.271z"/>
<linearGradient id="SVGID_2_" gradientUnits="userSpaceOnUse" x1="-45.2743" y1="639.4139" x2="-24.1319" y2="629.5548" gradientTransform="matrix(21.3333 0 0 -21.3333 996.3334 13791.667)">
	<stop  offset="0" style="stop-color:#FFFFFF;stop-opacity:0.2"/>
	<stop  offset="1" style="stop-color:#FFFFFF;stop-opacity:0"/>
</linearGradient>
<path style="fill:url(#SVGID_2_);" d="M384,0H128c-23.531,0-42.667,19.135-42.667,42.667v426.667
	C85.333,492.865,104.469,512,128,512h256c23.531,0,42.667-19.135,42.667-42.667V42.667C426.667,19.135,407.531,0,384,0z"/>
<g>
</g>
<g>
</g>
<g>
</g>
<g>
</g>
<g>
</g>
<g>
</g>
<g>
</g>
<g>
</g>
<g>
</g>
<g>
</g>
<g>
</g>
<g>
</g>
<g>
</g>
<g>
</g>
<g>
</g>
</svg>
